<?xml version="1.0" encoding="utf-8"?>
<!-- Generator: Adobe Illustrator 16.0.0, SVG Export Plug-In . SVG Version: 6.00 Build 0)  -->
<!DOCTYPE svg PUBLIC "-//W3C//DTD SVG 1.1//EN" "http://www.w3.org/Graphics/SVG/1.1/DTD/svg11.dtd">
<svg version="1.1" id="Layer_1" xmlns="http://www.w3.org/2000/svg" xmlns:xlink="http://www.w3.org/1999/xlink" x="0px" y="0px"
	 width="45px" height="45px" viewBox="0 0 45 45" enable-background="new 0 0 45 45" xml:space="preserve">
<path fill-rule="evenodd" clip-rule="evenodd" fill="#09225C" d="M12.563,28.07c0.152,0.609,0.292,1.17,0.435,1.731
	c0.011,0.044,0.033,0.087,0.056,0.145c0.126,0,0.249,0,0.372,0c6.086,0,12.174,0,18.261,0.001c0.143,0,0.285-0.001,0.427,0.013
	c0.486,0.049,0.835,0.437,0.836,0.921c0.002,0.484-0.346,0.874-0.831,0.926c-0.112,0.013-0.228,0.012-0.342,0.012
	c-6.41,0-12.819,0-19.23,0c-0.738,0-1.042-0.24-1.224-0.963c-1.21-4.842-2.412-9.686-3.643-14.523
	c-0.197-0.772,0.184-1.336,0.961-1.422c2.136-0.238,4.268-0.502,6.401-0.757c2.595-0.311,5.19-0.624,7.786-0.936
	c2.794-0.335,5.588-0.673,8.383-0.999c0.258-0.029,0.369-0.109,0.406-0.381c0.115-0.867,0.268-1.729,0.402-2.593
	c0.072-0.465,0.335-0.752,0.789-0.866c1.198-0.3,2.398-0.59,3.594-0.904c0.641-0.168,1.104,0.24,1.203,0.627
	c0.151,0.585-0.15,1.052-0.777,1.209c-0.932,0.235-1.862,0.47-2.797,0.691c-0.187,0.044-0.259,0.128-0.289,0.316
	c-0.874,5.578-1.756,11.156-2.636,16.733c-0.116,0.74-0.441,1.02-1.186,1.02c-5.649,0-11.299,0-16.948,0
	C12.851,28.07,12.728,28.07,12.563,28.07z M23.609,26.178c0.678,0,1.301,0,1.948,0c0.482-3.854,0.964-7.696,1.449-11.572
	c-0.991,0.119-1.947,0.235-2.91,0.351C23.934,18.713,23.771,22.435,23.609,26.178z M19.286,15.534
	c0.161,3.557,0.321,7.093,0.483,10.644c0.657,0,1.29,0,1.96,0c0.158-3.661,0.317-7.318,0.477-10.995
	C21.218,15.302,20.268,15.416,19.286,15.534z M15.927,26.175c0.669,0,1.302,0,1.963,0c-0.158-3.482-0.315-6.945-0.475-10.421
	c-0.989,0.12-1.948,0.237-2.927,0.355C14.971,19.481,15.447,22.82,15.927,26.175z M14.034,26.193
	c-0.474-3.309-0.942-6.584-1.413-9.865c-0.991,0.119-1.94,0.234-2.901,0.351c0.028,0.128,0.049,0.229,0.074,0.331
	c0.337,1.346,0.674,2.691,1.011,4.038c0.41,1.632,0.816,3.264,1.232,4.893c0.024,0.096,0.129,0.24,0.199,0.242
	C12.823,26.201,13.41,26.193,14.034,26.193z M27.446,26.193c0.563,0,1.085-0.013,1.604,0.006c0.229,0.008,0.281-0.076,0.309-0.285
	c0.462-3.506,0.934-7.01,1.401-10.514c0.056-0.41,0.104-0.82,0.158-1.263c-0.646,0.077-1.25,0.143-1.85,0.229
	c-0.066,0.009-0.151,0.129-0.166,0.209c-0.055,0.318-0.085,0.641-0.125,0.961c-0.333,2.668-0.667,5.338-1,8.007
	C27.669,24.41,27.562,25.277,27.446,26.193z M16.053,33.688c-1.025,0.01-1.878,0.867-1.867,1.881
	c0.012,1.029,0.862,1.872,1.883,1.866c1.023-0.006,1.869-0.858,1.865-1.881C17.929,34.531,17.069,33.678,16.053,33.688z
	 M28.242,37.435c1.017,0.011,1.87-0.828,1.889-1.858c0.019-1.011-0.83-1.871-1.861-1.889c-1.011-0.018-1.877,0.836-1.887,1.859
	C26.373,36.567,27.216,37.424,28.242,37.435z"/>
</svg>
