<?xml version="1.0" encoding="utf-8"?>
<!-- Generator: Adobe Illustrator 16.0.0, SVG Export Plug-In . SVG Version: 6.00 Build 0)  -->
<!DOCTYPE svg PUBLIC "-//W3C//DTD SVG 1.1//EN" "http://www.w3.org/Graphics/SVG/1.1/DTD/svg11.dtd">
<svg version="1.1" id="Layer_1" xmlns="http://www.w3.org/2000/svg" xmlns:xlink="http://www.w3.org/1999/xlink" x="0px" y="0px"
	 width="45px" height="45px" viewBox="0 0 45 45" enable-background="new 0 0 45 45" xml:space="preserve">
<path fill-rule="evenodd" clip-rule="evenodd" fill="#09225C" d="M15.011,7.891c0.159-0.66,0.282-1.268,0.455-1.861
	c0.334-1.15,0.901-2.174,1.711-3.064c0.984-1.078,2.112-1.93,3.516-2.389c3.137-1.025,7.408,0.271,9.158,3.863
	c0.588,1.211,0.963,2.459,1.078,3.792c0.01,0.115-0.02,0.233-0.025,0.349c-0.012,0.262,0.067,0.326,0.301,0.218
	c0.283-0.134,0.557-0.29,0.834-0.438c0.143-0.076,0.279-0.165,0.428-0.226c2.959-1.197,5.676-0.76,8.102,1.286
	c1.318,1.111,2.01,2.607,2.336,4.289c0.157,0.798,0.234,1.601,0.123,2.396c-0.095,0.67-0.287,1.336-0.51,1.978
	c-0.512,1.464-1.481,2.612-2.617,3.634c-0.033,0.029-0.072,0.061-0.113,0.073c-0.479,0.155-0.36,0.263-0.059,0.513
	c1.193,0.994,2.08,2.202,2.496,3.711c1.005,3.638-0.098,7.004-2.951,9.078c-1.969,1.432-4.163,1.826-6.496,1.034
	c-0.715-0.243-1.372-0.658-2.059-0.991c-0.132-0.064-0.271-0.112-0.505-0.209c0,0.42,0.028,0.758-0.004,1.09
	c-0.18,1.906-0.73,3.676-2.017,5.147c-1.061,1.218-2.415,1.933-3.978,2.317c-1.766,0.438-3.485,0.403-5.162-0.354
	c-0.884-0.399-1.647-0.961-2.314-1.661c-0.905-0.949-1.692-1.979-2.076-3.25c-0.185-0.617-0.289-1.264-0.373-1.904
	c-0.056-0.432-0.02-0.875-0.015-1.314c0.002-0.289-0.099-0.364-0.365-0.246c-0.293,0.129-0.58,0.276-0.88,0.389
	c-1.735,0.652-3.464,0.598-5.173-0.091c-1.79-0.721-3.186-1.89-4.054-3.638c-0.4-0.808-0.64-1.662-0.729-2.563
	c-0.119-1.213-0.137-2.417,0.25-3.594c0.545-1.66,1.521-2.994,3.008-3.936c0.32-0.201,0.322-0.305,0.029-0.555
	c-2.732-2.344-3.609-6.172-2.07-9.384c0.748-1.563,1.811-2.817,3.367-3.611c1.724-0.878,3.535-1.12,5.413-0.618
	c0.559,0.149,1.084,0.428,1.627,0.643C14.81,7.838,14.929,7.865,15.011,7.891z"/>
<path fill-rule="evenodd" clip-rule="evenodd" fill="#FFFFFF" d="M23.678,28.521c0-2.197,0-4.395,0-6.592
	c0-0.507,0-0.508,0.498-0.508c1.129,0,2.258,0,3.387,0.001c0.164,0,0.307-0.009,0.322-0.23c0.082-1.133,0.175-2.265,0.255-3.398
	c0.027-0.388,0.012-0.394-0.366-0.394c-1.24,0-2.48,0-3.721,0c-0.373,0-0.375-0.002-0.375-0.363c-0.001-0.915-0.002-1.83,0-2.745
	c0.002-0.757,0.336-1.222,1.052-1.457c0.269-0.089,0.546-0.134,0.831-0.145c0.748-0.028,1.483,0.073,2.206,0.26
	c0.2,0.052,0.282-0.005,0.314-0.201c0.2-1.214,0.404-2.427,0.611-3.64c0.026-0.16-0.032-0.244-0.184-0.277
	c-0.083-0.019-0.167-0.039-0.25-0.057c-1.558-0.318-3.136-0.379-4.718-0.37c-0.604,0.003-1.195,0.075-1.767,0.27
	c-1.283,0.437-2.248,1.243-2.816,2.487c-0.354,0.775-0.457,1.61-0.477,2.449c-0.027,1.146-0.014,2.292-0.02,3.438
	c-0.001,0.34-0.014,0.351-0.343,0.352c-0.719,0.001-1.437,0.009-2.155-0.004c-0.251-0.006-0.326,0.088-0.324,0.328
	c0.008,1.129,0.008,2.258,0,3.387c-0.001,0.232,0.079,0.318,0.314,0.314c0.658-0.011,1.317-0.004,1.975-0.004
	c0.53,0,0.53,0.001,0.53,0.535c0,4.404,0,8.808,0,13.211c0,0.424,0.004,0.427,0.433,0.427c1.471,0.001,2.941,0.001,4.412,0
	c0.362,0,0.373-0.011,0.373-0.377C23.678,32.986,23.678,30.754,23.678,28.521z"/>
</svg>
