<?xml version="1.0" encoding="utf-8"?>
<!-- Generator: Adobe Illustrator 16.0.0, SVG Export Plug-In . SVG Version: 6.00 Build 0)  -->
<!DOCTYPE svg PUBLIC "-//W3C//DTD SVG 1.1//EN" "http://www.w3.org/Graphics/SVG/1.1/DTD/svg11.dtd">
<svg version="1.1" id="Layer_1" xmlns="http://www.w3.org/2000/svg" xmlns:xlink="http://www.w3.org/1999/xlink" x="0px" y="0px"
	 width="45px" height="45px" viewBox="0 0 45 45" enable-background="new 0 0 45 45" xml:space="preserve">
<g>
	<path fill-rule="evenodd" clip-rule="evenodd" fill="#09225C" d="M14.972,7.891c0.158-0.66,0.282-1.268,0.454-1.861
		c0.335-1.15,0.901-2.174,1.712-3.063c0.983-1.079,2.112-1.931,3.517-2.39c3.137-1.025,7.406,0.271,9.156,3.863
		c0.59,1.211,0.964,2.459,1.079,3.793c0.01,0.114-0.02,0.232-0.025,0.349c-0.012,0.261,0.067,0.325,0.301,0.217
		c0.283-0.134,0.557-0.29,0.834-0.438c0.143-0.076,0.28-0.165,0.428-0.226c2.959-1.197,5.676-0.76,8.102,1.286
		c1.318,1.111,2.01,2.607,2.337,4.289c0.156,0.798,0.233,1.601,0.122,2.395c-0.095,0.671-0.287,1.337-0.51,1.979
		c-0.512,1.464-1.481,2.612-2.618,3.634c-0.032,0.029-0.07,0.061-0.112,0.073c-0.479,0.155-0.36,0.263-0.059,0.513
		c1.193,0.994,2.08,2.202,2.497,3.711c1.004,3.638-0.099,7.004-2.952,9.078c-1.969,1.432-4.163,1.826-6.495,1.034
		c-0.716-0.243-1.373-0.658-2.06-0.991c-0.132-0.064-0.271-0.112-0.505-0.209c0,0.42,0.027,0.758-0.004,1.09
		c-0.18,1.906-0.73,3.676-2.016,5.147c-1.063,1.218-2.416,1.933-3.979,2.317c-1.767,0.438-3.484,0.403-5.162-0.354
		c-0.884-0.399-1.647-0.961-2.314-1.661c-0.904-0.949-1.692-1.979-2.076-3.249c-0.185-0.617-0.289-1.265-0.373-1.904
		c-0.056-0.433-0.019-0.876-0.015-1.315c0.003-0.289-0.099-0.363-0.364-0.246c-0.294,0.129-0.58,0.276-0.88,0.389
		c-1.735,0.652-3.464,0.598-5.174-0.091c-1.789-0.721-3.186-1.889-4.053-3.638c-0.4-0.808-0.641-1.662-0.729-2.563
		c-0.119-1.213-0.137-2.417,0.25-3.594c0.545-1.66,1.521-2.994,3.008-3.936c0.319-0.201,0.321-0.305,0.028-0.555
		c-2.732-2.344-3.609-6.172-2.07-9.384c0.748-1.563,1.811-2.817,3.367-3.611c1.724-0.878,3.535-1.12,5.412-0.618
		c0.56,0.149,1.084,0.428,1.627,0.643C14.77,7.839,14.89,7.865,14.972,7.891z"/>
</g>
<path fill-rule="evenodd" clip-rule="evenodd" fill="#FFFFFF" d="M20.295,31.266c0.216-0.422,0.472-0.82,0.63-1.255
	c0.246-0.675,0.434-1.372,0.631-2.063c0.129-0.447,0.232-0.9,0.35-1.359c0.146,0.157,0.271,0.321,0.424,0.45
	c0.687,0.582,1.494,0.775,2.375,0.689c1.682-0.163,2.904-1.047,3.741-2.474c0.898-1.532,1.208-3.207,0.965-4.955
	c-0.201-1.446-0.972-2.595-2.136-3.466c-1.373-1.028-2.938-1.35-4.621-1.216c-0.989,0.079-1.938,0.308-2.821,0.77
	c-1.522,0.799-2.599,1.998-3.111,3.646c-0.424,1.363-0.37,2.719,0.312,4.005c0.301,0.566,0.752,0.989,1.345,1.252
	c0.299,0.132,0.479,0.052,0.562-0.261c0.068-0.257,0.127-0.518,0.197-0.774c0.042-0.154,0.014-0.294-0.087-0.409
	c-0.749-0.858-0.811-1.868-0.604-2.914c0.264-1.328,0.979-2.361,2.157-3.047c0.996-0.579,2.079-0.73,3.211-0.599
	c0.711,0.082,1.369,0.305,1.947,0.737c0.714,0.532,1.167,1.248,1.284,2.121c0.221,1.656-0.034,3.239-0.936,4.676
	c-0.393,0.625-0.936,1.07-1.685,1.229c-0.813,0.172-1.622-0.26-1.865-1.014c-0.097-0.304-0.081-0.61,0.004-0.914
	c0.24-0.85,0.49-1.698,0.721-2.551c0.104-0.389,0.146-0.786,0.063-1.188c-0.171-0.807-0.893-1.231-1.681-0.979
	c-0.644,0.205-1.014,0.686-1.238,1.288c-0.313,0.845-0.249,1.688,0.038,2.528c0.034,0.102,0.044,0.227,0.02,0.329
	c-0.391,1.688-0.79,3.373-1.188,5.059c-0.143,0.605-0.186,1.221-0.182,1.841c0.001,0.125,0,0.25,0,0.38
	c-3.816-1.564-6.836-6.202-5.439-11.364c1.418-5.239,6.874-8.336,12.187-6.689c5.218,1.619,7.978,7.109,6.333,12.188
	C30.485,30.246,24.975,32.699,20.295,31.266z"/>
</svg>
