<?xml version="1.0" encoding="utf-8"?>
<!-- Generator: Adobe Illustrator 16.0.0, SVG Export Plug-In . SVG Version: 6.00 Build 0)  -->
<!DOCTYPE svg PUBLIC "-//W3C//DTD SVG 1.1//EN" "http://www.w3.org/Graphics/SVG/1.1/DTD/svg11.dtd">
<svg version="1.1" id="Layer_1" xmlns="http://www.w3.org/2000/svg" xmlns:xlink="http://www.w3.org/1999/xlink" x="0px" y="0px"
	 width="45px" height="45px" viewBox="0 0 45 45" enable-background="new 0 0 45 45" xml:space="preserve">
<path fill-rule="evenodd" clip-rule="evenodd" fill="#09225C" stroke="#09225C" stroke-miterlimit="10" d="M29.721,25.485
	c0.945,0.938,1.879,1.862,2.811,2.791c1.393,1.394,2.791,2.78,4.172,4.187c0.818,0.835,1.004,2.041,0.525,3.09
	c-0.475,1.039-1.529,1.68-2.689,1.618c-0.73-0.04-1.346-0.338-1.863-0.856c-2.23-2.233-4.463-4.462-6.688-6.701
	c-0.168-0.169-0.277-0.164-0.469-0.056c-5.801,3.286-13.022,1.189-16.167-4.689c-2.535-4.739-1.428-10.733,2.648-14.272
	c2.363-2.054,5.128-3.049,8.249-2.884c3.955,0.209,7.056,2.009,9.259,5.3c1.379,2.059,1.98,4.357,1.898,6.825
	c-0.059,1.829-0.537,3.557-1.422,5.164C29.906,25.148,29.826,25.294,29.721,25.485z M19.72,12.315c3.926,0.012,7.1,3.2,7.077,7.11
	c-0.023,3.922-3.199,7.088-7.089,7.069c-3.923-0.019-7.118-3.225-7.082-7.11C12.663,15.457,15.826,12.305,19.72,12.315z"/>
</svg>
