<?xml version="1.0" encoding="utf-8"?>
<!-- Generator: Adobe Illustrator 16.0.0, SVG Export Plug-In . SVG Version: 6.00 Build 0)  -->
<!DOCTYPE svg PUBLIC "-//W3C//DTD SVG 1.1//EN" "http://www.w3.org/Graphics/SVG/1.1/DTD/svg11.dtd">
<svg version="1.1" id="Layer_1" xmlns="http://www.w3.org/2000/svg" xmlns:xlink="http://www.w3.org/1999/xlink" x="0px" y="0px"
	 width="45px" height="45px" viewBox="0 0 45 45" enable-background="new 0 0 45 45" xml:space="preserve">
<path fill-rule="evenodd" clip-rule="evenodd" fill="#09225C" d="M15.044,7.89c0.159-0.659,0.282-1.267,0.455-1.86
	c0.334-1.15,0.901-2.174,1.711-3.064c0.983-1.078,2.112-1.93,3.517-2.389c3.137-1.025,7.406,0.271,9.157,3.863
	c0.589,1.211,0.963,2.459,1.078,3.792c0.01,0.115-0.02,0.233-0.024,0.349c-0.013,0.262,0.066,0.326,0.3,0.218
	c0.283-0.134,0.557-0.29,0.834-0.438c0.144-0.076,0.28-0.165,0.428-0.226c2.959-1.197,5.676-0.76,8.103,1.286
	c1.317,1.111,2.009,2.607,2.336,4.289c0.156,0.798,0.234,1.601,0.122,2.395c-0.095,0.671-0.287,1.337-0.51,1.979
	c-0.512,1.464-1.481,2.612-2.618,3.634c-0.032,0.029-0.07,0.061-0.112,0.073c-0.479,0.155-0.36,0.263-0.059,0.513
	c1.193,0.994,2.08,2.202,2.497,3.711c1.004,3.638-0.099,7.004-2.952,9.078c-1.969,1.432-4.163,1.826-6.495,1.034
	c-0.716-0.243-1.373-0.658-2.06-0.991c-0.132-0.064-0.271-0.112-0.505-0.209c0,0.42,0.028,0.758-0.004,1.09
	c-0.18,1.906-0.73,3.676-2.016,5.147c-1.063,1.218-2.416,1.933-3.979,2.317c-1.767,0.438-3.484,0.403-5.161-0.354
	c-0.885-0.399-1.648-0.961-2.315-1.661c-0.904-0.949-1.691-1.979-2.076-3.249c-0.185-0.617-0.289-1.265-0.372-1.904
	c-0.057-0.433-0.02-0.876-0.016-1.315c0.003-0.289-0.099-0.363-0.364-0.246c-0.294,0.129-0.58,0.276-0.88,0.389
	c-1.734,0.652-3.464,0.598-5.174-0.091c-1.789-0.721-3.186-1.889-4.053-3.638c-0.4-0.808-0.64-1.662-0.729-2.563
	c-0.119-1.213-0.138-2.417,0.249-3.594c0.545-1.66,1.521-2.994,3.008-3.936c0.319-0.201,0.321-0.305,0.028-0.555
	c-2.732-2.344-3.609-6.172-2.07-9.384C5.071,9.816,6.134,8.563,7.69,7.769c1.724-0.878,3.535-1.12,5.413-0.618
	c0.559,0.149,1.083,0.428,1.627,0.643C14.843,7.838,14.962,7.865,15.044,7.89z"/>
<path fill-rule="evenodd" clip-rule="evenodd" fill="#FFFFFF" d="M22.869,18.663c-0.028-0.31-0.067-0.589-0.076-0.87
	c-0.093-2.795,2.378-4.963,5.14-4.511c0.907,0.148,1.692,0.541,2.35,1.183c0.113,0.11,0.213,0.146,0.374,0.109
	c0.816-0.184,1.589-0.479,2.322-0.879c0.074-0.041,0.149-0.08,0.238-0.126c-0.105,0.685-0.728,1.491-1.808,2.413
	c0.264-0.049,0.53-0.09,0.791-0.151c0.275-0.063,0.55-0.139,0.82-0.225c0.262-0.083,0.518-0.184,0.776-0.276
	c0.015,0.014,0.03,0.029,0.045,0.045c-0.352,0.412-0.685,0.841-1.06,1.23c-0.309,0.319-0.67,0.588-0.998,0.889
	c-0.068,0.062-0.131,0.175-0.129,0.263c0.059,3.374-1.03,6.338-3.228,8.88c-1.808,2.093-4.104,3.38-6.822,3.896
	c-2.051,0.389-4.087,0.324-6.097-0.27c-1.095-0.323-2.128-0.789-3.098-1.391c-0.021-0.013-0.039-0.03-0.107-0.083
	c1.2,0.112,2.328,0.034,3.437-0.282c1.104-0.316,2.109-0.822,3.049-1.546c-2.019-0.171-3.37-1.188-4.12-3.085
	c0.68,0.088,1.313,0.112,1.971-0.082c-2.666-0.655-3.606-3.024-3.483-4.382c0.605,0.304,1.233,0.503,1.959,0.528
	c-1.157-0.859-1.827-1.955-1.936-3.361c-0.068-0.897,0.117-1.745,0.582-2.54C16.157,16.857,19.181,18.404,22.869,18.663z"/>
</svg>
