<?xml version="1.0" encoding="utf-8"?>
<!-- Generator: Adobe Illustrator 16.0.0, SVG Export Plug-In . SVG Version: 6.00 Build 0)  -->
<!DOCTYPE svg PUBLIC "-//W3C//DTD SVG 1.1//EN" "http://www.w3.org/Graphics/SVG/1.1/DTD/svg11.dtd">
<svg version="1.1" id="Layer_1" xmlns="http://www.w3.org/2000/svg" xmlns:xlink="http://www.w3.org/1999/xlink" x="0px" y="0px"
	 width="35px" height="35px" viewBox="0 0 35 35" enable-background="new 0 0 35 35" xml:space="preserve">
<path fill-rule="evenodd" clip-rule="evenodd" fill="#253D8A" d="M18.377,1.826c2.752,1.067,4.41,2.937,4.342,6.217
	c1.854-1.021,3.73-1.528,5.529-0.517c0.992,0.558,1.943,1.457,2.518,2.435c1.41,2.397,0.672,5.023-1.809,7.351
	c2.559,3.207,2.844,5.822,0.906,8.305c-1.699,2.178-4.059,2.504-7.598,0.967c0.041,2.225-0.59,4.217-2.523,5.34
	c-1.043,0.607-2.404,0.963-3.609,0.93c-2.973-0.078-4.69-2.352-5.125-6.367c-3.666,0.963-5.855,0.295-7.261-2.213
	c-1.426-2.547-0.84-5.084,1.814-7.642c-1.298-1.296-2.315-2.801-2.035-4.719c0.161-1.107,0.494-2.295,1.105-3.208
	c1.443-2.156,3.693-2.563,6.865-1.51c0.311-0.843,0.561-1.714,0.942-2.522c0.711-1.503,2.109-2.206,3.538-2.846
	C16.777,1.826,17.577,1.826,18.377,1.826z M20.41,17.038c-0.021-1.891-1.561-3.438-3.436-3.451c-1.943-0.014-3.52,1.576-3.474,3.506
	c0.044,1.892,1.601,3.413,3.478,3.399C18.836,20.479,20.432,18.871,20.41,17.038z"/>
</svg>
